<?xml version="1.0" encoding="UTF-8" standalone="no"?>
<svg
   xmlns:dc="http://purl.org/dc/elements/1.1/"
   xmlns:cc="http://creativecommons.org/ns#"
   xmlns:rdf="http://www.w3.org/1999/02/22-rdf-syntax-ns#"
   xmlns:svg="http://www.w3.org/2000/svg"
   xmlns="http://www.w3.org/2000/svg"
   xmlns:sodipodi="http://sodipodi.sourceforge.net/DTD/sodipodi-0.dtd"
   xmlns:inkscape="http://www.inkscape.org/namespaces/inkscape"
   style="fill-opacity:1; color-rendering:auto; color-interpolation:auto; stroke:black; text-rendering:auto; stroke-linecap:square; stroke-miterlimit:10; stroke-opacity:1; shape-rendering:auto; fill:black; stroke-dasharray:none; font-weight:normal; stroke-width:1; font-family:'Dialog'; font-style:normal; stroke-linejoin:miter; font-size:12px; stroke-dashoffset:0; image-rendering:auto;"
   width="560"
   height="420"
   version="1.1"
   id="svg39"
   sodipodi:docname="circulo_freq.svg"
   inkscape:version="0.92.4 (5da689c313, 2019-01-14)">
  <metadata
     id="metadata43">
    <rdf:RDF>
      <cc:Work
         rdf:about="">
        <dc:format>image/svg+xml</dc:format>
        <dc:type
           rdf:resource="http://purl.org/dc/dcmitype/StillImage" />
        <dc:title></dc:title>
      </cc:Work>
    </rdf:RDF>
  </metadata>
  <sodipodi:namedview
     pagecolor="#ffffff"
     bordercolor="#666666"
     borderopacity="1"
     objecttolerance="10"
     gridtolerance="10"
     guidetolerance="10"
     inkscape:pageopacity="0"
     inkscape:pageshadow="2"
     inkscape:window-width="1366"
     inkscape:window-height="705"
     id="namedview41"
     showgrid="false"
     inkscape:zoom="1.5893067"
     inkscape:cx="245.20575"
     inkscape:cy="261.52337"
     inkscape:window-x="-8"
     inkscape:window-y="-8"
     inkscape:window-maximized="1"
     inkscape:current-layer="svg39" />
  <!--Generated by the Batik Graphics2D SVG Generator-->
  <defs
     id="genericDefs" />
  <g
     id="g37">
    <defs
       id="defs1">
      <clipPath
         clipPathUnits="userSpaceOnUse"
         id="clipPath1">
        <path
           d="M0 0 L560 0 L560 420 L0 420 L0 0 Z"
           id="path3" />
      </clipPath>
    </defs>
    <g
       style="fill:white; stroke:white;"
       id="g9">
      <rect
         x="0"
         y="0"
         width="560"
         style="clip-path:url(#clipPath1); stroke:none;"
         height="420"
         clip-path="url(#clipPath1)"
         id="rect7" />
    </g>
    <g
       style="fill:white; text-rendering:optimizeSpeed; color-rendering:optimizeSpeed; image-rendering:optimizeSpeed; shape-rendering:crispEdges; color-interpolation:sRGB; stroke:white;"
       id="g13">
      <rect
         x="0"
         width="560"
         height="420"
         y="0"
         style="stroke:none;"
         id="rect11" />
    </g>
    <g
       style="stroke-linecap:butt; text-rendering:geometricPrecision; color-rendering:optimizeQuality; image-rendering:optimizeQuality; stroke-linejoin:bevel; stroke-dasharray:10,6; color-interpolation:linearRGB; stroke-miterlimit:1;"
       id="g21">
      <path
         d="M445.5786 200.5448 L445.5418 198.59 L445.4803 196.6358 L445.3944 194.6824 L445.2839 192.7304 L445.1489 190.7798 L444.9893 188.8311 L444.8053 186.8846 L444.5969 184.9406 L444.364 182.9993 L444.1068 181.0611 L443.8252 179.1263 L443.5193 177.1951 L443.1893 175.268 L442.835 173.3452 L442.4565 171.4269 L442.054 169.5136 L441.6275 167.6055 L441.1771 165.7029 L440.7027 163.8061 L440.2046 161.9154 L439.6828 160.0312 L439.1373 158.1536 L438.5682 156.283 L437.9757 154.4198 L437.3599 152.5641 L436.7208 150.7163 L436.0585 148.8767 L435.3731 147.0455 L434.6648 145.2232 L433.9336 143.4098 L433.1797 141.6058 L432.4032 139.8114 L431.6042 138.0269 L430.7829 136.2526 L429.9393 134.4888 L429.0736 132.7356 L428.1859 130.9935 L427.2765 129.2627 L426.3453 127.5435 L425.3927 125.8361 L424.4186 124.1408 L423.4233 122.4579 L422.407 120.7876 L421.3698 119.1302 L420.3117 117.486 L419.2332 115.8552 L418.1342 114.2381 L417.015 112.6349 L415.8757 111.046 L414.7165 109.4714 L413.5377 107.9116 L412.3393 106.3667 L411.1216 104.8369 L409.8849 103.3226 L408.6291 101.824 L407.3546 100.3412 L406.0617 98.8746 L404.7503 97.4244 L403.4209 95.9907 L402.0735 94.5739 L400.7085 93.1741 L399.326 91.7915 L397.9261 90.4265 L396.5093 89.0791 L395.0757 87.7497 L393.6254 86.4383 L392.1588 85.1453 L390.676 83.8709 L389.1774 82.6151 L387.6631 81.3783 L386.1333 80.1607 L384.5884 78.9623 L383.0286 77.7835 L381.454 76.6243 L379.8651 75.485 L378.2619 74.3658 L376.6448 73.2668 L375.014 72.1882 L373.3698 71.1302 L371.7124 70.093 L370.0421 69.0766 L368.3592 68.0814 L366.6639 67.1073 L364.9565 66.1546 L363.2372 65.2235 L361.5064 64.314 L359.7643 63.4264 L358.0112 62.5607 L356.2474 61.7171 L354.4731 60.8958 L352.6886 60.0968 L350.8942 59.3203 L349.0902 58.5664 L347.2768 57.8352 L345.4544 57.1269 L343.6233 56.4415 L341.7837 55.7792 L339.9359 55.1401 L338.0802 54.5243 L336.217 53.9318 L334.3464 53.3627 L332.4688 52.8172 L330.5846 52.2954 L328.6939 51.7973 L326.7971 51.3229 L324.8945 50.8725 L322.9864 50.446 L321.0731 50.0435 L319.1548 49.665 L317.232 49.3107 L315.3049 48.9806 L313.3737 48.6748 L311.4389 48.3932 L309.5007 48.136 L307.5594 47.9031 L305.6154 47.6947 L303.6689 47.5107 L301.7202 47.3511 L299.7696 47.2161 L297.8176 47.1056 L295.8643 47.0196 L293.91 46.9582 L291.9552 46.9214 L290 46.9091 L288.0448 46.9214 L286.09 46.9582 L284.1357 47.0196 L282.1824 47.1056 L280.2304 47.2161 L278.2798 47.3511 L276.3311 47.5107 L274.3846 47.6947 L272.4406 47.9031 L270.4993 48.136 L268.5611 48.3932 L266.6263 48.6748 L264.6951 48.9806 L262.768 49.3107 L260.8452 49.665 L258.9269 50.0435 L257.0136 50.446 L255.1055 50.8725 L253.2029 51.3229 L251.3061 51.7973 L249.4154 52.2954 L247.5312 52.8172 L245.6536 53.3627 L243.783 53.9318 L241.9198 54.5243 L240.0641 55.1401 L238.2163 55.7792 L236.3767 56.4415 L234.5455 57.1269 L232.7232 57.8352 L230.9098 58.5664 L229.1058 59.3203 L227.3114 60.0968 L225.5269 60.8958 L223.7526 61.7171 L221.9888 62.5607 L220.2356 63.4264 L218.4935 64.314 L216.7627 65.2235 L215.0435 66.1546 L213.3361 67.1073 L211.6408 68.0814 L209.9579 69.0766 L208.2876 70.093 L206.6302 71.1302 L204.986 72.1882 L203.3552 73.2668 L201.7381 74.3658 L200.1349 75.485 L198.546 76.6243 L196.9714 77.7835 L195.4116 78.9623 L193.8667 80.1607 L192.3369 81.3783 L190.8226 82.6151 L189.324 83.8709 L187.8412 85.1453 L186.3746 86.4383 L184.9244 87.7497 L183.4907 89.0791 L182.0739 90.4265 L180.6741 91.7915 L179.2915 93.1741 L177.9265 94.5739 L176.5791 95.9907 L175.2497 97.4244 L173.9383 98.8746 L172.6453 100.3412 L171.3709 101.824 L170.1151 103.3226 L168.8783 104.8369 L167.6607 106.3667 L166.4623 107.9116 L165.2835 109.4714 L164.1243 111.046 L162.985 112.6349 L161.8658 114.2381 L160.7668 115.8552 L159.6882 117.486 L158.6302 119.1302 L157.593 120.7876 L156.5766 122.4579 L155.5814 124.1408 L154.6073 125.8361 L153.6546 127.5435 L152.7235 129.2627 L151.814 130.9935 L150.9264 132.7356 L150.0607 134.4888 L149.2171 136.2526 L148.3958 138.0269 L147.5968 139.8114 L146.8203 141.6058 L146.0664 143.4098 L145.3352 145.2232 L144.6269 147.0455 L143.9415 148.8767 L143.2793 150.7163 L142.6401 152.5641 L142.0242 154.4198 L141.4317 156.283 L140.8627 158.1536 L140.3172 160.0312 L139.7954 161.9154 L139.2973 163.8061 L138.8229 165.7029 L138.3725 167.6055 L137.946 169.5136 L137.5435 171.4269 L137.165 173.3452 L136.8107 175.268 L136.4806 177.1951 L136.1748 179.1263 L135.8932 181.0611 L135.636 182.9993 L135.4031 184.9406 L135.1947 186.8846 L135.0107 188.8311 L134.8511 190.7798 L134.7161 192.7304 L134.6056 194.6824 L134.5196 196.6358 L134.4582 198.59 L134.4214 200.5448 L134.4091 202.5 L134.4214 204.4552 L134.4582 206.41 L134.5196 208.3642 L134.6056 210.3176 L134.7161 212.2696 L134.8511 214.2202 L135.0107 216.1689 L135.1947 218.1154 L135.4031 220.0594 L135.636 222.0007 L135.8932 223.9389 L136.1748 225.8737 L136.4806 227.8049 L136.8107 229.732 L137.165 231.6548 L137.5435 233.5731 L137.946 235.4864 L138.3725 237.3945 L138.8229 239.2971 L139.2973 241.1939 L139.7954 243.0846 L140.3172 244.9688 L140.8627 246.8464 L141.4317 248.717 L142.0242 250.5802 L142.6401 252.4359 L143.2793 254.2837 L143.9415 256.1233 L144.6269 257.9544 L145.3352 259.7768 L146.0664 261.5902 L146.8203 263.3942 L147.5968 265.1886 L148.3958 266.9731 L149.2171 268.7474 L150.0607 270.5112 L150.9264 272.2643 L151.814 274.0064 L152.7235 275.7372 L153.6546 277.4565 L154.6073 279.1639 L155.5814 280.8592 L156.5766 282.5421 L157.593 284.2124 L158.6302 285.8698 L159.6882 287.514 L160.7668 289.1448 L161.8658 290.7619 L162.985 292.3651 L164.1243 293.954 L165.2835 295.5286 L166.4623 297.0884 L167.6607 298.6333 L168.8783 300.1631 L170.1151 301.6774 L171.3709 303.176 L172.6453 304.6588 L173.9383 306.1254 L175.2497 307.5757 L176.5791 309.0093 L177.9265 310.4261 L179.2915 311.826 L180.6741 313.2085 L182.0739 314.5735 L183.4907 315.9209 L184.9244 317.2503 L186.3746 318.5617 L187.8412 319.8546 L189.324 321.1291 L190.8226 322.3849 L192.3369 323.6216 L193.8667 324.8393 L195.4116 326.0377 L196.9714 327.2165 L198.546 328.3757 L200.1349 329.515 L201.7381 330.6342 L203.3552 331.7332 L204.986 332.8117 L206.6302 333.8698 L208.2876 334.907 L209.9579 335.9233 L211.6408 336.9186 L213.3361 337.8927 L215.0435 338.8453 L216.7627 339.7765 L218.4935 340.6859 L220.2356 341.5736 L221.9888 342.4393 L223.7526 343.2829 L225.5269 344.1042 L227.3114 344.9032 L229.1058 345.6797 L230.9098 346.4336 L232.7232 347.1648 L234.5455 347.8731 L236.3767 348.5585 L238.2163 349.2208 L240.0641 349.8599 L241.9198 350.4757 L243.783 351.0682 L245.6536 351.6373 L247.5312 352.1828 L249.4154 352.7046 L251.3061 353.2027 L253.2029 353.6771 L255.1055 354.1275 L257.0136 354.554 L258.9269 354.9565 L260.8452 355.335 L262.768 355.6893 L264.6951 356.0193 L266.6263 356.3252 L268.5611 356.6068 L270.4993 356.864 L272.4406 357.0969 L274.3846 357.3053 L276.3311 357.4893 L278.2798 357.6489 L280.2304 357.7839 L282.1824 357.8944 L284.1357 357.9803 L286.09 358.0418 L288.0448 358.0786 L290 358.0909 L291.9552 358.0786 L293.91 358.0418 L295.8643 357.9803 L297.8176 357.8944 L299.7696 357.7839 L301.7202 357.6489 L303.6689 357.4893 L305.6154 357.3053 L307.5594 357.0969 L309.5007 356.864 L311.4389 356.6068 L313.3737 356.3252 L315.3049 356.0193 L317.232 355.6893 L319.1548 355.335 L321.0731 354.9565 L322.9864 354.554 L324.8945 354.1275 L326.7971 353.6771 L328.6939 353.2027 L330.5846 352.7046 L332.4688 352.1828 L334.3464 351.6373 L336.217 351.0682 L338.0802 350.4757 L339.9359 349.8599 L341.7837 349.2208 L343.6233 348.5585 L345.4544 347.8731 L347.2768 347.1648 L349.0902 346.4336 L350.8942 345.6797 L352.6886 344.9032 L354.4731 344.1042 L356.2474 343.2829 L358.0112 342.4393 L359.7643 341.5736 L361.5064 340.6859 L363.2372 339.7765 L364.9565 338.8453 L366.6639 337.8927 L368.3592 336.9186 L370.0421 335.9233 L371.7124 334.907 L373.3698 333.8698 L375.014 332.8117 L376.6448 331.7332 L378.2619 330.6342 L379.8651 329.515 L381.454 328.3757 L383.0286 327.2165 L384.5884 326.0377 L386.1333 324.8393 L387.6631 323.6216 L389.1774 322.3849 L390.676 321.1291 L392.1588 319.8546 L393.6254 318.5617 L395.0757 317.2503 L396.5093 315.9209 L397.9261 314.5735 L399.326 313.2085 L400.7085 311.826 L402.0735 310.4261 L403.4209 309.0093 L404.7503 307.5757 L406.0617 306.1254 L407.3546 304.6588 L408.6291 303.176 L409.8849 301.6774 L411.1216 300.1631 L412.3393 298.6333 L413.5377 297.0884 L414.7165 295.5286 L415.8757 293.954 L417.015 292.3651 L418.1342 290.7619 L419.2332 289.1448 L420.3117 287.514 L421.3698 285.8698 L422.407 284.2124 L423.4233 282.5421 L424.4186 280.8592 L425.3927 279.1639 L426.3453 277.4565 L427.2765 275.7372 L428.1859 274.0064 L429.0736 272.2643 L429.9393 270.5112 L430.7829 268.7474 L431.6042 266.9731 L432.4032 265.1886 L433.1797 263.3942 L433.9336 261.5902 L434.6648 259.7768 L435.3731 257.9544 L436.0585 256.1233 L436.7208 254.2837 L437.3599 252.4359 L437.9757 250.5802 L438.5682 248.717 L439.1373 246.8464 L439.6828 244.9688 L440.2046 243.0846 L440.7027 241.1939 L441.1771 239.2971 L441.6275 237.3945 L442.054 235.4864 L442.4565 233.5731 L442.835 231.6548 L443.1893 229.732 L443.5193 227.8049 L443.8252 225.8737 L444.1068 223.9389 L444.364 222.0007 L444.5969 220.0594 L444.8053 218.1154 L444.9893 216.1689 L445.1489 214.2202 L445.2839 212.2696 L445.3944 210.3176 L445.4803 208.3642 L445.5418 206.41 L445.5786 204.4552 L445.5909 202.5"
         style="fill:none; fill-rule:evenodd;"
         id="path15" />
      <line
         y2="202.5"
         style="fill:none;"
         x1="72.9566"
         x2="507.0434"
         y1="202.5"
         id="line17" />
      <line
         y2="31.3158"
         style="fill:none;"
         x1="290"
         x2="290"
         y1="373.6842"
         id="line19" />
    </g>
    <g
       style="text-rendering:geometricPrecision; color-interpolation:linearRGB; color-rendering:optimizeQuality; image-rendering:optimizeQuality;"
       id="g35">
      <line
         y2="92.4806"
         style="fill:none;"
         x1="290"
         x2="179.9806"
         y1="202.5"
         id="line23" />
      <path
         d="M294.5 202.5 L293.7361 200.1489 L291.7361 198.6958 L289.2639 198.6958 L287.2639 200.1489 L286.5 202.5 L287.2639 204.8511 L289.2639 206.3042 L291.7361 206.3042 L293.7361 204.8511 L294.5 202.5"
         style="fill:none; fill-rule:evenodd;"
         id="path25" />
      <path
         d="M183.5 92.5 L182.7361 90.1489 L180.7361 88.6958 L178.2639 88.6958 L176.2639 90.1489 L175.5 92.5 L176.2639 94.8511 L178.2639 96.3042 L180.7361 96.3042 L182.7361 94.8511 L183.5 92.5"
         style="fill:none; fill-rule:evenodd;"
         id="path27" />
      <line
         y2="337.2457"
         style="fill:none;"
         x1="290"
         x2="212.2045"
         y1="202.5"
         id="line29" />
      <path
         d="M294.5 202.5 L293.7361 200.1489 L291.7361 198.6958 L289.2639 198.6958 L287.2639 200.1489 L286.5 202.5 L287.2639 204.8511 L289.2639 206.3042 L291.7361 206.3042 L293.7361 204.8511 L294.5 202.5"
         style="fill:none; fill-rule:evenodd;"
         id="path31" />
      <path
         d="M216.5 337.5 L215.7361 335.1489 L213.7361 333.6958 L211.2639 333.6958 L209.2639 335.1489 L208.5 337.5 L209.2639 339.8511 L211.2639 341.3042 L213.7361 341.3042 L215.7361 339.8511 L216.5 337.5"
         style="fill:none; fill-rule:evenodd;"
         id="path33" />
    </g>
  </g>
  <path
     style="fill:none;fill-opacity:1;stroke:#000000;stroke-width:1.60000002;stroke-miterlimit:4;stroke-dasharray:3.20000005, 1.60000002;stroke-dashoffset:0;stroke-opacity:1"
     id="path850"
     sodipodi:type="arc"
     sodipodi:cx="290"
     sodipodi:cy="202.5"
     sodipodi:rx="20.551666"
     sodipodi:ry="20.551666"
     sodipodi:start="2.1298427"
     sodipodi:end="6.2407214"
     sodipodi:open="true"
     d="m 279.09985,219.92291 a 20.551666,20.551666 0 0 1 -8.34462,-24.6347 20.551666,20.551666 0 0 1 22.47924,-13.08376 20.551666,20.551666 0 0 1 17.29867,19.42311" />
  <path
     style="fill:none;fill-opacity:1;stroke:#000000;stroke-width:1.60000002;stroke-miterlimit:4;stroke-dasharray:3.20000005, 1.60000002;stroke-dashoffset:0;stroke-opacity:1"
     id="path852"
     sodipodi:type="arc"
     sodipodi:cx="290"
     sodipodi:cy="202.5"
     sodipodi:rx="31.877359"
     sodipodi:ry="31.877359"
     sodipodi:start="3.930899"
     sodipodi:end="6.2407214"
     sodipodi:open="true"
     d="m 267.54757,179.87138 a 31.877359,31.877359 0 0 1 34.08139,-7.0519 31.877359,31.877359 0 0 1 20.21966,28.32729" />
  <flowRoot
     xml:space="preserve"
     id="flowRoot854"
     style="font-style:normal;font-weight:normal;font-size:40px;line-height:1.25;font-family:sans-serif;letter-spacing:0px;word-spacing:0px;fill:#000000;fill-opacity:1;stroke:none"><flowRegion
       id="flowRegion856"><rect
         id="rect858"
         width="62.920517"
         height="44.673569"
         x="315.23181"
         y="156.99223" /></flowRegion><flowPara
       id="flowPara860">A</flowPara></flowRoot>  <text
     xml:space="preserve"
     style="font-style:normal;font-weight:normal;font-size:13.33333333px;line-height:1.25;font-family:sans-serif;letter-spacing:0px;word-spacing:0px;fill:#000000;fill-opacity:1;stroke:none;"
     x="298.87247"
     y="144.40813"
     id="text868"><tspan
       sodipodi:role="line"
       id="tspan866"
       x="298.87247"
       y="179.79875" /></text>
  <flowRoot
     xml:space="preserve"
     id="flowRoot870"
     style="font-style:normal;font-weight:normal;font-size:16px;line-height:1.25;font-family:sans-serif;letter-spacing:0px;word-spacing:0px;fill:#000000;fill-opacity:1;stroke:none"
     transform="translate(-15.73013,4.4044363)"><flowRegion
       id="flowRegion872"><rect
         id="rect874"
         width="131.50389"
         height="26.426611"
         x="311.45657"
         y="148.18336" /></flowRegion><flowPara
       id="flowPara884"><flowSpan
   style="font-size:12px"
   id="flowSpan882">$\theta_1 = 3/4 \pi$</flowSpan> 3/33hhsadfasass</flowPara></flowRoot>  <text
     xml:space="preserve"
     style="font-style:normal;font-weight:normal;font-size:16px;line-height:1.25;font-family:sans-serif;letter-spacing:0px;word-spacing:0px;fill:#000000;fill-opacity:1;stroke:none"
     x="391.99484"
     y="155.73383"
     id="text880"><tspan
       sodipodi:role="line"
       id="tspan878"
       x="391.99484"
       y="169.89008"></tspan></text>
  <flowRoot
     xml:space="preserve"
     id="flowRoot870-0"
     style="font-style:normal;font-weight:normal;font-size:16px;line-height:1.25;font-family:sans-serif;letter-spacing:0px;word-spacing:0px;color-interpolation:auto;fill:#000000;fill-opacity:1;stroke:none;stroke-width:1;stroke-linecap:square;stroke-linejoin:miter;stroke-miterlimit:10;stroke-dasharray:none;stroke-dashoffset:0;stroke-opacity:1;color-rendering:auto;image-rendering:auto;shape-rendering:auto;text-rendering:auto"
     transform="translate(-129.52851,59.625043)"><flowRegion
       id="flowRegion872-2"><rect
         id="rect874-2"
         width="137.79593"
         height="26.426611"
         x="311.45657"
         y="148.18336" /></flowRegion><flowPara
       id="flowPara917"><flowSpan
   style="font-size:12px"
   id="flowSpan882-0">$\theta_2 = 4/3 \pi$</flowSpan> 3/33hhsadfasass</flowPara></flowRoot>  <flowRoot
     xml:space="preserve"
     id="flowRoot925"
     style="font-style:normal;font-weight:normal;font-size:16px;line-height:1.25;font-family:sans-serif;letter-spacing:0px;word-spacing:0px;fill:#000000;fill-opacity:1;stroke:none"><flowRegion
       id="flowRegion927"><rect
         id="rect929"
         width="32.71867"
         height="17.617744"
         x="181.8403"
         y="70.161919" /></flowRegion><flowPara
       id="flowPara931">ff</flowPara></flowRoot>  <text
     xml:space="preserve"
     style="font-style:normal;font-weight:normal;font-size:16px;line-height:1.25;font-family:sans-serif;letter-spacing:0px;word-spacing:0px;fill:#000000;fill-opacity:1;stroke:none"
     x="156.67209"
     y="89.038078"
     id="text935"><tspan
       sodipodi:role="line"
       id="tspan933"
       x="156.67209"
       y="89.038078">f1</tspan></text>
  <text
     xml:space="preserve"
     style="font-style:normal;font-weight:normal;font-size:16px;line-height:1.25;font-family:sans-serif;letter-spacing:0px;word-spacing:0px;fill:#000000;fill-opacity:1;stroke:none"
     x="186.87393"
     y="351.41666"
     id="text939"><tspan
       sodipodi:role="line"
       id="tspan937"
       x="186.87393"
       y="351.41666">f2</tspan></text>
</svg>
